<svg width="24" height="22" viewBox="0 0 24 22" fill="none" xmlns="http://www.w3.org/2000/svg">
<path d="M5.44819 22V7.15664H0.303532V22H5.44819ZM2.87653 5.12881C4.67056 5.12881 5.78726 3.98901 5.78726 2.56465C5.75383 1.10816 4.67063 0 2.91057 0C1.15079 0 0 1.10818 0 2.56465C0 3.98908 1.11642 5.12881 2.84294 5.12881H2.87637H2.87653ZM8.29574 22H13.4404V13.7107C13.4404 13.2671 13.4738 12.8239 13.6097 12.5068C13.9816 11.6205 14.8281 10.7024 16.2493 10.7024C18.1109 10.7024 18.8557 12.0636 18.8557 14.059V21.9999H24V13.4888C24 8.92955 21.4619 6.80816 18.077 6.80816C15.3017 6.80816 14.0831 8.29584 13.4062 9.30909H13.4405V7.15633H8.29585C8.36337 8.54915 8.29585 21.9997 8.29585 21.9997L8.29574 22Z" fill="white"/>
</svg>
